<?xml version="1.0" standalone="no"?><!DOCTYPE svg PUBLIC "-//W3C//DTD SVG 1.1//EN" "http://www.w3.org/Graphics/SVG/1.1/DTD/svg11.dtd"><svg t="1565630703868" class="icon" viewBox="0 0 1024 1024" version="1.1" xmlns="http://www.w3.org/2000/svg" p-id="5081" xmlns:xlink="http://www.w3.org/1999/xlink" width="64" height="64"><defs><style type="text/css"></style></defs><path d="M902.4 253.866667h-618.666667c-12.8 0-21.333333-8.533333-21.333333-21.333334s8.533333-21.333333 21.333333-21.333333h618.666667c12.8 0 21.333333 8.533333 21.333333 21.333333 0 10.666667-8.533333 21.333333-21.333333 21.333334z" p-id="5082"></path><path d="M142.933333 232.533333m-36.266666 0a36.266667 36.266667 0 1 0 72.533333 0 36.266667 36.266667 0 1 0-72.533333 0Z" p-id="5083"></path><path d="M902.4 535.466667h-618.666667c-12.8 0-21.333333-8.533333-21.333333-21.333334s8.533333-21.333333 21.333333-21.333333h618.666667c12.8 0 21.333333 8.533333 21.333333 21.333333s-8.533333 21.333333-21.333333 21.333334z" p-id="5084"></path><path d="M142.933333 514.133333m-36.266666 0a36.266667 36.266667 0 1 0 72.533333 0 36.266667 36.266667 0 1 0-72.533333 0Z" p-id="5085"></path><path d="M902.4 817.066667h-618.666667c-12.8 0-21.333333-8.533333-21.333333-21.333334s8.533333-21.333333 21.333333-21.333333h618.666667c12.8 0 21.333333 8.533333 21.333333 21.333333 0 10.666667-8.533333 21.333333-21.333333 21.333334z" p-id="5086"></path><path d="M142.933333 795.733333m-36.266666 0a36.266667 36.266667 0 1 0 72.533333 0 36.266667 36.266667 0 1 0-72.533333 0Z" p-id="5087"></path></svg>