<?xml version="1.0" standalone="no"?><!DOCTYPE svg PUBLIC "-//W3C//DTD SVG 1.1//EN" "http://www.w3.org/Graphics/SVG/1.1/DTD/svg11.dtd"><svg t="1565630772127" class="icon" viewBox="0 0 1024 1024" version="1.1" xmlns="http://www.w3.org/2000/svg" p-id="8962" xmlns:xlink="http://www.w3.org/1999/xlink" width="64" height="64"><defs><style type="text/css"></style></defs><path d="M170.666667 341.333333C76.8 341.333333 0 264.533333 0 170.666667s76.8-170.666667 170.666667-170.666667 170.666667 76.8 170.666667 170.666667S264.533333 341.333333 170.666667 341.333333zM170.666667 85.333333C123.733333 85.333333 85.333333 123.733333 85.333333 170.666667s38.4 85.333333 85.333333 85.333333 85.333333-38.4 85.333333-85.333333S217.6 85.333333 170.666667 85.333333z" p-id="8963"></path><path d="M682.666667 682.666667c-93.866667 0-170.666667-76.8-170.666667-170.666667s76.8-170.666667 170.666667-170.666667 170.666667 76.8 170.666667 170.666667S776.533333 682.666667 682.666667 682.666667zM682.666667 426.666667c-46.933333 0-85.333333 38.4-85.333333 85.333333s38.4 85.333333 85.333333 85.333333 85.333333-38.4 85.333333-85.333333S729.6 426.666667 682.666667 426.666667z" p-id="8964"></path><path d="M981.333333 213.333333 298.666667 213.333333C273.066667 213.333333 256 196.266667 256 170.666667s17.066667-42.666667 42.666667-42.666667l682.666667 0c25.6 0 42.666667 17.066667 42.666667 42.666667S1006.933333 213.333333 981.333333 213.333333z" p-id="8965"></path><path d="M981.333333 554.666667l-170.666667 0c-25.6 0-42.666667-17.066667-42.666667-42.666667s17.066667-42.666667 42.666667-42.666667l170.666667 0c25.6 0 42.666667 17.066667 42.666667 42.666667S1006.933333 554.666667 981.333333 554.666667z" p-id="8966"></path><path d="M554.666667 554.666667 42.666667 554.666667c-25.6 0-42.666667-17.066667-42.666667-42.666667s17.066667-42.666667 42.666667-42.666667l512 0c25.6 0 42.666667 17.066667 42.666667 42.666667S580.266667 554.666667 554.666667 554.666667z" p-id="8967"></path><path d="M426.666667 1024c-93.866667 0-170.666667-76.8-170.666667-170.666667s76.8-170.666667 170.666667-170.666667 170.666667 76.8 170.666667 170.666667S520.533333 1024 426.666667 1024zM426.666667 768c-46.933333 0-85.333333 38.4-85.333333 85.333333s38.4 85.333333 85.333333 85.333333 85.333333-38.4 85.333333-85.333333S473.6 768 426.666667 768z" p-id="8968"></path><path d="M981.333333 896 554.666667 896c-25.6 0-42.666667-17.066667-42.666667-42.666667s17.066667-42.666667 42.666667-42.666667l426.666667 0c25.6 0 42.666667 17.066667 42.666667 42.666667S1006.933333 896 981.333333 896z" p-id="8969"></path><path d="M298.666667 896 42.666667 896c-25.6 0-42.666667-17.066667-42.666667-42.666667s17.066667-42.666667 42.666667-42.666667l256 0c25.6 0 42.666667 17.066667 42.666667 42.666667S324.266667 896 298.666667 896z" p-id="8970"></path></svg>